<mxfile host="app.diagrams.net" modified="2023-10-31T16:11:33.621Z" agent="Mozilla/5.0 (Windows NT 10.0; Win64; x64) AppleWebKit/537.36 (KHTML, like Gecko) Chrome/118.0.0.0 Safari/537.36" etag="K_mNoTrEhDj2ByA_CTC6" version="22.0.8" type="device">
  <diagram name="Page-1" id="fzaCTIRdML0bYxhaleU3">
    <mxGraphModel dx="2390" dy="1280" grid="1" gridSize="10" guides="1" tooltips="1" connect="1" arrows="1" fold="1" page="1" pageScale="1" pageWidth="850" pageHeight="1100" math="0" shadow="0">
      <root>
        <mxCell id="0" />
        <mxCell id="1" parent="0" />
        <mxCell id="CRKDKkANjr1wCwTOWbYb-2" value="Person" style="swimlane;fontStyle=0;childLayout=stackLayout;horizontal=1;startSize=20;horizontalStack=0;resizeParent=1;resizeParentMax=0;resizeLast=0;collapsible=1;marginBottom=0;align=center;fontSize=14;" vertex="1" parent="1">
          <mxGeometry x="60" y="30" width="160" height="140" as="geometry" />
        </mxCell>
        <mxCell id="CRKDKkANjr1wCwTOWbYb-3" value="Name" style="text;strokeColor=none;fillColor=none;spacingLeft=4;spacingRight=4;overflow=hidden;rotatable=0;points=[[0,0.5],[1,0.5]];portConstraint=eastwest;fontSize=12;whiteSpace=wrap;html=1;" vertex="1" parent="CRKDKkANjr1wCwTOWbYb-2">
          <mxGeometry y="20" width="160" height="30" as="geometry" />
        </mxCell>
        <mxCell id="CRKDKkANjr1wCwTOWbYb-4" value="ID" style="text;strokeColor=none;fillColor=none;spacingLeft=4;spacingRight=4;overflow=hidden;rotatable=0;points=[[0,0.5],[1,0.5]];portConstraint=eastwest;fontSize=12;whiteSpace=wrap;html=1;" vertex="1" parent="CRKDKkANjr1wCwTOWbYb-2">
          <mxGeometry y="50" width="160" height="30" as="geometry" />
        </mxCell>
        <mxCell id="CRKDKkANjr1wCwTOWbYb-7" value="Password" style="text;strokeColor=none;fillColor=none;spacingLeft=4;spacingRight=4;overflow=hidden;rotatable=0;points=[[0,0.5],[1,0.5]];portConstraint=eastwest;fontSize=12;whiteSpace=wrap;html=1;" vertex="1" parent="CRKDKkANjr1wCwTOWbYb-2">
          <mxGeometry y="80" width="160" height="30" as="geometry" />
        </mxCell>
        <mxCell id="CRKDKkANjr1wCwTOWbYb-6" value="Username" style="text;strokeColor=none;fillColor=none;spacingLeft=4;spacingRight=4;overflow=hidden;rotatable=0;points=[[0,0.5],[1,0.5]];portConstraint=eastwest;fontSize=12;whiteSpace=wrap;html=1;" vertex="1" parent="CRKDKkANjr1wCwTOWbYb-2">
          <mxGeometry y="110" width="160" height="30" as="geometry" />
        </mxCell>
        <mxCell id="CRKDKkANjr1wCwTOWbYb-71" style="edgeStyle=orthogonalEdgeStyle;rounded=0;orthogonalLoop=1;jettySize=auto;html=1;entryX=0.5;entryY=0;entryDx=0;entryDy=0;" edge="1" parent="1" source="CRKDKkANjr1wCwTOWbYb-15" target="CRKDKkANjr1wCwTOWbYb-39">
          <mxGeometry relative="1" as="geometry" />
        </mxCell>
        <mxCell id="CRKDKkANjr1wCwTOWbYb-15" value="Student" style="swimlane;fontStyle=0;childLayout=stackLayout;horizontal=1;startSize=20;horizontalStack=0;resizeParent=1;resizeParentMax=0;resizeLast=0;collapsible=1;marginBottom=0;align=center;fontSize=14;" vertex="1" parent="1">
          <mxGeometry x="290" y="250" width="160" height="80" as="geometry" />
        </mxCell>
        <mxCell id="CRKDKkANjr1wCwTOWbYb-16" value="StudentID" style="text;strokeColor=none;fillColor=none;spacingLeft=4;spacingRight=4;overflow=hidden;rotatable=0;points=[[0,0.5],[1,0.5]];portConstraint=eastwest;fontSize=12;whiteSpace=wrap;html=1;" vertex="1" parent="CRKDKkANjr1wCwTOWbYb-15">
          <mxGeometry y="20" width="160" height="30" as="geometry" />
        </mxCell>
        <mxCell id="CRKDKkANjr1wCwTOWbYb-17" value="Transcript" style="text;strokeColor=none;fillColor=none;spacingLeft=4;spacingRight=4;overflow=hidden;rotatable=0;points=[[0,0.5],[1,0.5]];portConstraint=eastwest;fontSize=12;whiteSpace=wrap;html=1;" vertex="1" parent="CRKDKkANjr1wCwTOWbYb-15">
          <mxGeometry y="50" width="160" height="30" as="geometry" />
        </mxCell>
        <mxCell id="CRKDKkANjr1wCwTOWbYb-20" value="Advisor" style="swimlane;fontStyle=0;childLayout=stackLayout;horizontal=1;startSize=20;horizontalStack=0;resizeParent=1;resizeParentMax=0;resizeLast=0;collapsible=1;marginBottom=0;align=center;fontSize=14;" vertex="1" parent="1">
          <mxGeometry x="20" y="220" width="160" height="80" as="geometry" />
        </mxCell>
        <mxCell id="CRKDKkANjr1wCwTOWbYb-21" value="StudentID" style="text;strokeColor=none;fillColor=none;spacingLeft=4;spacingRight=4;overflow=hidden;rotatable=0;points=[[0,0.5],[1,0.5]];portConstraint=eastwest;fontSize=12;whiteSpace=wrap;html=1;" vertex="1" parent="CRKDKkANjr1wCwTOWbYb-20">
          <mxGeometry y="20" width="160" height="30" as="geometry" />
        </mxCell>
        <mxCell id="CRKDKkANjr1wCwTOWbYb-22" value="Transcript" style="text;strokeColor=none;fillColor=none;spacingLeft=4;spacingRight=4;overflow=hidden;rotatable=0;points=[[0,0.5],[1,0.5]];portConstraint=eastwest;fontSize=12;whiteSpace=wrap;html=1;" vertex="1" parent="CRKDKkANjr1wCwTOWbYb-20">
          <mxGeometry y="50" width="160" height="30" as="geometry" />
        </mxCell>
        <mxCell id="CRKDKkANjr1wCwTOWbYb-23" value="Course" style="swimlane;fontStyle=0;childLayout=stackLayout;horizontal=1;startSize=20;horizontalStack=0;resizeParent=1;resizeParentMax=0;resizeLast=0;collapsible=1;marginBottom=0;align=center;fontSize=14;" vertex="1" parent="1">
          <mxGeometry x="540" y="80" width="160" height="80" as="geometry" />
        </mxCell>
        <mxCell id="CRKDKkANjr1wCwTOWbYb-24" value="StudentID" style="text;strokeColor=none;fillColor=none;spacingLeft=4;spacingRight=4;overflow=hidden;rotatable=0;points=[[0,0.5],[1,0.5]];portConstraint=eastwest;fontSize=12;whiteSpace=wrap;html=1;" vertex="1" parent="CRKDKkANjr1wCwTOWbYb-23">
          <mxGeometry y="20" width="160" height="30" as="geometry" />
        </mxCell>
        <mxCell id="CRKDKkANjr1wCwTOWbYb-25" value="Transcript" style="text;strokeColor=none;fillColor=none;spacingLeft=4;spacingRight=4;overflow=hidden;rotatable=0;points=[[0,0.5],[1,0.5]];portConstraint=eastwest;fontSize=12;whiteSpace=wrap;html=1;" vertex="1" parent="CRKDKkANjr1wCwTOWbYb-23">
          <mxGeometry y="50" width="160" height="30" as="geometry" />
        </mxCell>
        <mxCell id="CRKDKkANjr1wCwTOWbYb-26" value="Course" style="swimlane;fontStyle=0;childLayout=stackLayout;horizontal=1;startSize=20;horizontalStack=0;resizeParent=1;resizeParentMax=0;resizeLast=0;collapsible=1;marginBottom=0;align=center;fontSize=14;" vertex="1" parent="1">
          <mxGeometry x="660" y="580" width="160" height="80" as="geometry" />
        </mxCell>
        <mxCell id="CRKDKkANjr1wCwTOWbYb-27" value="courseCode" style="text;strokeColor=none;fillColor=none;spacingLeft=4;spacingRight=4;overflow=hidden;rotatable=0;points=[[0,0.5],[1,0.5]];portConstraint=eastwest;fontSize=12;whiteSpace=wrap;html=1;" vertex="1" parent="CRKDKkANjr1wCwTOWbYb-26">
          <mxGeometry y="20" width="160" height="30" as="geometry" />
        </mxCell>
        <mxCell id="CRKDKkANjr1wCwTOWbYb-28" value="courseName" style="text;strokeColor=none;fillColor=none;spacingLeft=4;spacingRight=4;overflow=hidden;rotatable=0;points=[[0,0.5],[1,0.5]];portConstraint=eastwest;fontSize=12;whiteSpace=wrap;html=1;" vertex="1" parent="CRKDKkANjr1wCwTOWbYb-26">
          <mxGeometry y="50" width="160" height="30" as="geometry" />
        </mxCell>
        <mxCell id="CRKDKkANjr1wCwTOWbYb-29" value="Grade" style="swimlane;fontStyle=0;childLayout=stackLayout;horizontal=1;startSize=20;horizontalStack=0;resizeParent=1;resizeParentMax=0;resizeLast=0;collapsible=1;marginBottom=0;align=center;fontSize=14;" vertex="1" parent="1">
          <mxGeometry x="670" y="370" width="160" height="80" as="geometry" />
        </mxCell>
        <mxCell id="CRKDKkANjr1wCwTOWbYb-30" value="gradeValue" style="text;strokeColor=none;fillColor=none;spacingLeft=4;spacingRight=4;overflow=hidden;rotatable=0;points=[[0,0.5],[1,0.5]];portConstraint=eastwest;fontSize=12;whiteSpace=wrap;html=1;" vertex="1" parent="CRKDKkANjr1wCwTOWbYb-29">
          <mxGeometry y="20" width="160" height="30" as="geometry" />
        </mxCell>
        <mxCell id="CRKDKkANjr1wCwTOWbYb-31" value="gradePoints" style="text;strokeColor=none;fillColor=none;spacingLeft=4;spacingRight=4;overflow=hidden;rotatable=0;points=[[0,0.5],[1,0.5]];portConstraint=eastwest;fontSize=12;whiteSpace=wrap;html=1;" vertex="1" parent="CRKDKkANjr1wCwTOWbYb-29">
          <mxGeometry y="50" width="160" height="30" as="geometry" />
        </mxCell>
        <mxCell id="CRKDKkANjr1wCwTOWbYb-32" value="Registration" style="swimlane;fontStyle=0;childLayout=stackLayout;horizontal=1;startSize=20;horizontalStack=0;resizeParent=1;resizeParentMax=0;resizeLast=0;collapsible=1;marginBottom=0;align=center;fontSize=14;" vertex="1" parent="1">
          <mxGeometry x="100" y="380" width="160" height="170" as="geometry" />
        </mxCell>
        <mxCell id="CRKDKkANjr1wCwTOWbYb-33" value="registrationId" style="text;strokeColor=none;fillColor=none;spacingLeft=4;spacingRight=4;overflow=hidden;rotatable=0;points=[[0,0.5],[1,0.5]];portConstraint=eastwest;fontSize=12;whiteSpace=wrap;html=1;" vertex="1" parent="CRKDKkANjr1wCwTOWbYb-32">
          <mxGeometry y="20" width="160" height="30" as="geometry" />
        </mxCell>
        <mxCell id="CRKDKkANjr1wCwTOWbYb-35" value="studentID" style="text;strokeColor=none;fillColor=none;spacingLeft=4;spacingRight=4;overflow=hidden;rotatable=0;points=[[0,0.5],[1,0.5]];portConstraint=eastwest;fontSize=12;whiteSpace=wrap;html=1;" vertex="1" parent="CRKDKkANjr1wCwTOWbYb-32">
          <mxGeometry y="50" width="160" height="30" as="geometry" />
        </mxCell>
        <mxCell id="CRKDKkANjr1wCwTOWbYb-36" value="courseCode" style="text;strokeColor=none;fillColor=none;spacingLeft=4;spacingRight=4;overflow=hidden;rotatable=0;points=[[0,0.5],[1,0.5]];portConstraint=eastwest;fontSize=12;whiteSpace=wrap;html=1;" vertex="1" parent="CRKDKkANjr1wCwTOWbYb-32">
          <mxGeometry y="80" width="160" height="30" as="geometry" />
        </mxCell>
        <mxCell id="CRKDKkANjr1wCwTOWbYb-37" value="sectionNumber" style="text;strokeColor=none;fillColor=none;spacingLeft=4;spacingRight=4;overflow=hidden;rotatable=0;points=[[0,0.5],[1,0.5]];portConstraint=eastwest;fontSize=12;whiteSpace=wrap;html=1;" vertex="1" parent="CRKDKkANjr1wCwTOWbYb-32">
          <mxGeometry y="110" width="160" height="30" as="geometry" />
        </mxCell>
        <mxCell id="CRKDKkANjr1wCwTOWbYb-38" value="registrationDate" style="text;strokeColor=none;fillColor=none;spacingLeft=4;spacingRight=4;overflow=hidden;rotatable=0;points=[[0,0.5],[1,0.5]];portConstraint=eastwest;fontSize=12;whiteSpace=wrap;html=1;" vertex="1" parent="CRKDKkANjr1wCwTOWbYb-32">
          <mxGeometry y="140" width="160" height="30" as="geometry" />
        </mxCell>
        <mxCell id="CRKDKkANjr1wCwTOWbYb-39" value="Transcript" style="swimlane;fontStyle=0;childLayout=stackLayout;horizontal=1;startSize=20;horizontalStack=0;resizeParent=1;resizeParentMax=0;resizeLast=0;collapsible=1;marginBottom=0;align=center;fontSize=14;" vertex="1" parent="1">
          <mxGeometry x="290" y="370" width="160" height="80" as="geometry" />
        </mxCell>
        <mxCell id="CRKDKkANjr1wCwTOWbYb-40" value="studentId" style="text;strokeColor=none;fillColor=none;spacingLeft=4;spacingRight=4;overflow=hidden;rotatable=0;points=[[0,0.5],[1,0.5]];portConstraint=eastwest;fontSize=12;whiteSpace=wrap;html=1;" vertex="1" parent="CRKDKkANjr1wCwTOWbYb-39">
          <mxGeometry y="20" width="160" height="30" as="geometry" />
        </mxCell>
        <mxCell id="CRKDKkANjr1wCwTOWbYb-41" value="grades" style="text;strokeColor=none;fillColor=none;spacingLeft=4;spacingRight=4;overflow=hidden;rotatable=0;points=[[0,0.5],[1,0.5]];portConstraint=eastwest;fontSize=12;whiteSpace=wrap;html=1;" vertex="1" parent="CRKDKkANjr1wCwTOWbYb-39">
          <mxGeometry y="50" width="160" height="30" as="geometry" />
        </mxCell>
        <mxCell id="CRKDKkANjr1wCwTOWbYb-42" value="CourseRegistrationSystem" style="swimlane;fontStyle=0;childLayout=stackLayout;horizontal=1;startSize=20;horizontalStack=0;resizeParent=1;resizeParentMax=0;resizeLast=0;collapsible=1;marginBottom=0;align=center;fontSize=14;" vertex="1" parent="1">
          <mxGeometry x="410" y="810" width="200" height="200" as="geometry" />
        </mxCell>
        <mxCell id="CRKDKkANjr1wCwTOWbYb-43" value="login" style="text;strokeColor=none;fillColor=none;spacingLeft=4;spacingRight=4;overflow=hidden;rotatable=0;points=[[0,0.5],[1,0.5]];portConstraint=eastwest;fontSize=12;whiteSpace=wrap;html=1;" vertex="1" parent="CRKDKkANjr1wCwTOWbYb-42">
          <mxGeometry y="20" width="200" height="30" as="geometry" />
        </mxCell>
        <mxCell id="CRKDKkANjr1wCwTOWbYb-44" value="viewTranscript" style="text;strokeColor=none;fillColor=none;spacingLeft=4;spacingRight=4;overflow=hidden;rotatable=0;points=[[0,0.5],[1,0.5]];portConstraint=eastwest;fontSize=12;whiteSpace=wrap;html=1;" vertex="1" parent="CRKDKkANjr1wCwTOWbYb-42">
          <mxGeometry y="50" width="200" height="30" as="geometry" />
        </mxCell>
        <mxCell id="CRKDKkANjr1wCwTOWbYb-51" value="enrollStudentInCourse" style="text;strokeColor=none;fillColor=none;spacingLeft=4;spacingRight=4;overflow=hidden;rotatable=0;points=[[0,0.5],[1,0.5]];portConstraint=eastwest;fontSize=12;whiteSpace=wrap;html=1;" vertex="1" parent="CRKDKkANjr1wCwTOWbYb-42">
          <mxGeometry y="80" width="200" height="30" as="geometry" />
        </mxCell>
        <mxCell id="CRKDKkANjr1wCwTOWbYb-52" value="withdrawStudentFromCourse" style="text;strokeColor=none;fillColor=none;spacingLeft=4;spacingRight=4;overflow=hidden;rotatable=0;points=[[0,0.5],[1,0.5]];portConstraint=eastwest;fontSize=12;whiteSpace=wrap;html=1;" vertex="1" parent="CRKDKkANjr1wCwTOWbYb-42">
          <mxGeometry y="110" width="200" height="30" as="geometry" />
        </mxCell>
        <mxCell id="CRKDKkANjr1wCwTOWbYb-53" value="teachCourse" style="text;strokeColor=none;fillColor=none;spacingLeft=4;spacingRight=4;overflow=hidden;rotatable=0;points=[[0,0.5],[1,0.5]];portConstraint=eastwest;fontSize=12;whiteSpace=wrap;html=1;" vertex="1" parent="CRKDKkANjr1wCwTOWbYb-42">
          <mxGeometry y="140" width="200" height="30" as="geometry" />
        </mxCell>
        <mxCell id="CRKDKkANjr1wCwTOWbYb-54" value="adviseStudent" style="text;strokeColor=none;fillColor=none;spacingLeft=4;spacingRight=4;overflow=hidden;rotatable=0;points=[[0,0.5],[1,0.5]];portConstraint=eastwest;fontSize=12;whiteSpace=wrap;html=1;" vertex="1" parent="CRKDKkANjr1wCwTOWbYb-42">
          <mxGeometry y="170" width="200" height="30" as="geometry" />
        </mxCell>
        <mxCell id="CRKDKkANjr1wCwTOWbYb-57" value="JSONFileManager " style="swimlane;fontStyle=0;childLayout=stackLayout;horizontal=1;startSize=20;horizontalStack=0;resizeParent=1;resizeParentMax=0;resizeLast=0;collapsible=1;marginBottom=0;align=center;fontSize=14;" vertex="1" parent="1">
          <mxGeometry x="100" y="610" width="160" height="80" as="geometry" />
        </mxCell>
        <mxCell id="CRKDKkANjr1wCwTOWbYb-58" value="readJSONFile" style="text;strokeColor=none;fillColor=none;spacingLeft=4;spacingRight=4;overflow=hidden;rotatable=0;points=[[0,0.5],[1,0.5]];portConstraint=eastwest;fontSize=12;whiteSpace=wrap;html=1;" vertex="1" parent="CRKDKkANjr1wCwTOWbYb-57">
          <mxGeometry y="20" width="160" height="30" as="geometry" />
        </mxCell>
        <mxCell id="CRKDKkANjr1wCwTOWbYb-59" value="writeJSONFile" style="text;strokeColor=none;fillColor=none;spacingLeft=4;spacingRight=4;overflow=hidden;rotatable=0;points=[[0,0.5],[1,0.5]];portConstraint=eastwest;fontSize=12;whiteSpace=wrap;html=1;" vertex="1" parent="CRKDKkANjr1wCwTOWbYb-57">
          <mxGeometry y="50" width="160" height="30" as="geometry" />
        </mxCell>
        <mxCell id="CRKDKkANjr1wCwTOWbYb-75" style="edgeStyle=orthogonalEdgeStyle;rounded=0;orthogonalLoop=1;jettySize=auto;html=1;entryX=1;entryY=0.5;entryDx=0;entryDy=0;" edge="1" parent="1" source="CRKDKkANjr1wCwTOWbYb-63" target="CRKDKkANjr1wCwTOWbYb-58">
          <mxGeometry relative="1" as="geometry">
            <mxPoint x="270" y="650" as="targetPoint" />
          </mxGeometry>
        </mxCell>
        <mxCell id="CRKDKkANjr1wCwTOWbYb-63" value="SystemParameters " style="swimlane;fontStyle=0;childLayout=stackLayout;horizontal=1;startSize=20;horizontalStack=0;resizeParent=1;resizeParentMax=0;resizeLast=0;collapsible=1;marginBottom=0;align=center;fontSize=14;" vertex="1" parent="1">
          <mxGeometry x="380" y="620" width="160" height="50" as="geometry" />
        </mxCell>
        <mxCell id="CRKDKkANjr1wCwTOWbYb-64" value="parameters" style="text;strokeColor=none;fillColor=none;spacingLeft=4;spacingRight=4;overflow=hidden;rotatable=0;points=[[0,0.5],[1,0.5]];portConstraint=eastwest;fontSize=12;whiteSpace=wrap;html=1;" vertex="1" parent="CRKDKkANjr1wCwTOWbYb-63">
          <mxGeometry y="20" width="160" height="30" as="geometry" />
        </mxCell>
        <mxCell id="CRKDKkANjr1wCwTOWbYb-67" style="edgeStyle=orthogonalEdgeStyle;rounded=0;orthogonalLoop=1;jettySize=auto;html=1;entryX=0.564;entryY=0.01;entryDx=0;entryDy=0;entryPerimeter=0;" edge="1" parent="1" source="CRKDKkANjr1wCwTOWbYb-2" target="CRKDKkANjr1wCwTOWbYb-20">
          <mxGeometry relative="1" as="geometry" />
        </mxCell>
        <mxCell id="CRKDKkANjr1wCwTOWbYb-68" style="edgeStyle=orthogonalEdgeStyle;rounded=0;orthogonalLoop=1;jettySize=auto;html=1;entryX=0.5;entryY=0;entryDx=0;entryDy=0;" edge="1" parent="1" source="CRKDKkANjr1wCwTOWbYb-6" target="CRKDKkANjr1wCwTOWbYb-15">
          <mxGeometry relative="1" as="geometry" />
        </mxCell>
        <mxCell id="CRKDKkANjr1wCwTOWbYb-69" style="edgeStyle=orthogonalEdgeStyle;rounded=0;orthogonalLoop=1;jettySize=auto;html=1;" edge="1" parent="1" source="CRKDKkANjr1wCwTOWbYb-21" target="CRKDKkANjr1wCwTOWbYb-16">
          <mxGeometry relative="1" as="geometry" />
        </mxCell>
        <mxCell id="CRKDKkANjr1wCwTOWbYb-70" style="edgeStyle=orthogonalEdgeStyle;rounded=0;orthogonalLoop=1;jettySize=auto;html=1;entryX=0;entryY=0.5;entryDx=0;entryDy=0;" edge="1" parent="1" source="CRKDKkANjr1wCwTOWbYb-16" target="CRKDKkANjr1wCwTOWbYb-23">
          <mxGeometry relative="1" as="geometry" />
        </mxCell>
        <mxCell id="CRKDKkANjr1wCwTOWbYb-72" style="edgeStyle=orthogonalEdgeStyle;rounded=0;orthogonalLoop=1;jettySize=auto;html=1;entryX=-0.01;entryY=0.693;entryDx=0;entryDy=0;entryPerimeter=0;" edge="1" parent="1" source="CRKDKkANjr1wCwTOWbYb-39" target="CRKDKkANjr1wCwTOWbYb-30">
          <mxGeometry relative="1" as="geometry" />
        </mxCell>
        <mxCell id="CRKDKkANjr1wCwTOWbYb-74" style="edgeStyle=orthogonalEdgeStyle;rounded=0;orthogonalLoop=1;jettySize=auto;html=1;entryX=0.489;entryY=-0.026;entryDx=0;entryDy=0;entryPerimeter=0;" edge="1" parent="1" source="CRKDKkANjr1wCwTOWbYb-17" target="CRKDKkANjr1wCwTOWbYb-32">
          <mxGeometry relative="1" as="geometry" />
        </mxCell>
        <mxCell id="CRKDKkANjr1wCwTOWbYb-76" style="edgeStyle=orthogonalEdgeStyle;rounded=0;orthogonalLoop=1;jettySize=auto;html=1;entryX=0.5;entryY=1;entryDx=0;entryDy=0;" edge="1" parent="1" source="CRKDKkANjr1wCwTOWbYb-52" target="CRKDKkANjr1wCwTOWbYb-26">
          <mxGeometry relative="1" as="geometry" />
        </mxCell>
        <mxCell id="CRKDKkANjr1wCwTOWbYb-77" style="edgeStyle=orthogonalEdgeStyle;rounded=0;orthogonalLoop=1;jettySize=auto;html=1;entryX=0.5;entryY=0;entryDx=0;entryDy=0;" edge="1" parent="1" source="CRKDKkANjr1wCwTOWbYb-38" target="CRKDKkANjr1wCwTOWbYb-63">
          <mxGeometry relative="1" as="geometry" />
        </mxCell>
        <mxCell id="CRKDKkANjr1wCwTOWbYb-78" style="edgeStyle=orthogonalEdgeStyle;rounded=0;orthogonalLoop=1;jettySize=auto;html=1;entryX=0.5;entryY=0;entryDx=0;entryDy=0;" edge="1" parent="1" source="CRKDKkANjr1wCwTOWbYb-37" target="CRKDKkANjr1wCwTOWbYb-26">
          <mxGeometry relative="1" as="geometry" />
        </mxCell>
        <mxCell id="CRKDKkANjr1wCwTOWbYb-79" style="edgeStyle=orthogonalEdgeStyle;rounded=0;orthogonalLoop=1;jettySize=auto;html=1;entryX=0.001;entryY=0.293;entryDx=0;entryDy=0;entryPerimeter=0;" edge="1" parent="1" source="CRKDKkANjr1wCwTOWbYb-51" target="CRKDKkANjr1wCwTOWbYb-37">
          <mxGeometry relative="1" as="geometry" />
        </mxCell>
      </root>
    </mxGraphModel>
  </diagram>
</mxfile>
